<svg viewBox="70 95 180 200" xmlns="http://www.w3.org/2000/svg">
    <path fill="#ff3c00" d="M22.3,-39.6C31,-33.7,41.5,-31.9,52.2,-25.9C62.9,-20,73.7,-10,74.8,0.6C75.8,11.2,67.1,22.5,55.3,26.5C43.5,30.5,28.7,27.3,19,32.9C9.3,38.5,4.6,53,-5.5,62.6C-15.7,72.1,-31.4,76.9,-38.8,69.9C-46.3,63,-45.4,44.3,-50.2,30.7C-55,17.1,-65.5,8.6,-64.5,0.6C-63.4,-7.4,-51,-14.8,-41.7,-20.7C-32.5,-26.7,-26.5,-31.1,-20.1,-38.4C-13.7,-45.6,-6.8,-55.7,0,-55.7C6.8,-55.6,13.6,-45.5,22.3,-39.6Z" transform="translate(100 100)" />
</svg>